<svg xmlns="http://www.w3.org/2000/svg">
	<symbol id="edit" viewBox="0 0 24 24">
		<polygon points="16 3 21 8 8 21 3 21 3 16 16 3" stroke-linecap="round" stroke-linejoin="round" stroke-width="2"/>
	</symbol>
	<symbol id="add" viewBox="0 0 24 24">
		<line x1="12" x2="12" y1="5" y2="19"/><line x1="5" x2="19" y1="12" y2="12"/>
	</symbol>
	<symbol id="x" viewBox="0 0 24 24">
		<line x1="18" x2="6" y1="6" y2="18"/><line x1="6" x2="18" y1="6" y2="18"/>
	</symbol>
	<symbol id="refresh" viewBox="0 0 24 24">
		<polyline points="23 4 23 10 17 10"/><polyline points="1 20 1 14 7 14"/><path d="M3.51 9a9 9 0 0 1 14.85-3.36L23 10M1 14l4.64 4.36A9 9 0 0 0 20.49 15"/>
	</symbol>
	<symbol id="delete" viewBox="0 0 24 24">
		<polyline points="3 6 5 6 21 6"/><path d="M19 6v14a2 2 0 0 1-2 2H7a2 2 0 0 1-2-2V6m3 0V4a2 2 0 0 1 2-2h4a2 2 0 0 1 2 2v2"/><line x1="10" x2="10" y1="11" y2="17"/><line x1="14" x2="14" y1="11" y2="17"/>
	</symbol>
	<symbol id="search" viewBox="0 0 24 24">
		<circle cx="10.5" cy="10.5" r="7.5"/><line x1="21" x2="15.8" y1="21" y2="15.8"/>
	</symbol>
	<symbol id="star" viewBox="0 0 24 24">
		<polygon points="12 2 15.09 8.26 22 9.27 17 14.14 18.18 21.02 12 17.77 5.82 21.02 7 14.14 2 9.27 8.91 8.26 12 2"/>
	</symbol>
</svg>